# xmcd
#
# Track frame offsets: 
#        150
#        11394
#        21327
#        33501
#        45064
#        60788
#        71881
#        90050
#        103052
#        114488
#        127092
#        139276
#        149498
#        162764
#        173742
#        189279
#        200068
#        212009
#        231819
#        243138
#        256634
#        273739
#
# Disc length: 3832 seconds
#
# Revision: 0
# Processed by: cddbd v1.5.1PL2 Copyright (c) Steve Scherf et al.
# Submitted via: ExactAudioCopy v0.95a5
#
DISCID=290ef616
DTITLE=John Lee Hooker  - The Best Of John Lee Hooker [UK]
DYEAR=1900
DGENRE=Blues
TTITLE0=Boom Boom
TTITLE1=Dimples
TTITLE2=I'm In The Mood
TTITLE3=Boogie Chillun
TTITLE4=It Serves Me Right To Suffer
TTITLE5=This Is Hip
TTITLE6=House Rent Boogie
TTITLE7=I'm So Excited
TTITLE8=I Love You Honey
TTITLE9=Hobo Blues
TTITLE10=Crawlin' Kingsnake
TTITLE11=Maudie
TTITLE12=Baby Lee
TTITLE13=Good Rockin' Mama
TTITLE14=Dirty Ground Hog Blues
TTITLE15=Bottle Up And Go
TTITLE16=Everybody Rockin'
TTITLE17=Nightmare
TTITLE18=Will The Circle Be Unbroken
TTITLE19=You're Gonna Miss Me When I'm Gone
TTITLE20=Blues Before Sunrise
TTITLE21=Time Is Marching
EXTD=
EXTT0=
EXTT1=
EXTT2=
EXTT3=
EXTT4=
EXTT5=
EXTT6=
EXTT7=
EXTT8=
EXTT9=
EXTT10=
EXTT11=
EXTT12=
EXTT13=
EXTT14=
EXTT15=
EXTT16=
EXTT17=
EXTT18=
EXTT19=
EXTT20=
EXTT21=
PLAYORDER=
